<svg xmlns="http://www.w3.org/2000/svg" xmlns:xlink="http://www.w3.org/1999/xlink" width="2000" zoomAndPan="magnify" viewBox="0 0 1500 1499.999933" height="2000" preserveAspectRatio="xMidYMid meet" version="1.0"><defs><g/></defs><g fill="#ffffff" fill-opacity="1"><g transform="translate(544.022146, 803.999911)"><g><path d="M 104.5625 -30 C 104.5625 -26.132812 103.90625 -22.664062 102.59375 -19.59375 C 101.28125 -16.53125 99.488281 -13.8125 97.21875 -11.4375 C 94.957031 -9.070312 92.332031 -7.046875 89.34375 -5.359375 C 86.351562 -3.679688 83.160156 -2.296875 79.765625 -1.203125 C 76.367188 -0.109375 72.878906 0.691406 69.296875 1.203125 C 65.722656 1.710938 62.222656 1.96875 58.796875 1.96875 C 51.347656 1.96875 44.503906 1.640625 38.265625 0.984375 C 32.023438 0.328125 25.910156 -0.726562 19.921875 -2.1875 L 19.921875 -19.703125 C 26.347656 -17.878906 32.734375 -16.492188 39.078125 -15.546875 C 45.429688 -14.597656 51.75 -14.125 58.03125 -14.125 C 67.15625 -14.125 73.90625 -15.363281 78.28125 -17.84375 C 82.664062 -20.320312 84.859375 -23.863281 84.859375 -28.46875 C 84.859375 -30.4375 84.507812 -32.203125 83.8125 -33.765625 C 83.125 -35.335938 81.863281 -36.835938 80.03125 -38.265625 C 78.207031 -39.691406 75.378906 -41.171875 71.546875 -42.703125 C 67.710938 -44.234375 62.476562 -45.984375 55.84375 -47.953125 C 50.875 -49.410156 46.289062 -51.070312 42.09375 -52.9375 C 37.894531 -54.800781 34.265625 -57.007812 31.203125 -59.5625 C 28.140625 -62.113281 25.726562 -65.101562 23.96875 -68.53125 C 22.21875 -71.96875 21.34375 -76.019531 21.34375 -80.6875 C 21.34375 -83.757812 22.054688 -87.117188 23.484375 -90.765625 C 24.910156 -94.410156 27.335938 -97.800781 30.765625 -100.9375 C 34.191406 -104.082031 38.828125 -106.691406 44.671875 -108.765625 C 50.515625 -110.847656 57.8125 -111.890625 66.5625 -111.890625 C 70.875 -111.890625 75.65625 -111.648438 80.90625 -111.171875 C 86.164062 -110.703125 91.644531 -109.882812 97.34375 -108.71875 L 97.34375 -91.75 C 91.351562 -93.207031 85.675781 -94.28125 80.3125 -94.96875 C 74.945312 -95.664062 70.289062 -96.015625 66.34375 -96.015625 C 61.601562 -96.015625 57.609375 -95.648438 54.359375 -94.921875 C 51.109375 -94.191406 48.476562 -93.1875 46.46875 -91.90625 C 44.46875 -90.632812 43.03125 -89.140625 42.15625 -87.421875 C 41.28125 -85.710938 40.84375 -83.867188 40.84375 -81.890625 C 40.84375 -79.921875 41.222656 -78.132812 41.984375 -76.53125 C 42.753906 -74.925781 44.175781 -73.375 46.25 -71.875 C 48.332031 -70.382812 51.234375 -68.890625 54.953125 -67.390625 C 58.679688 -65.890625 63.539062 -64.265625 69.53125 -62.515625 C 76.019531 -60.617188 81.488281 -58.628906 85.9375 -56.546875 C 90.394531 -54.472656 94.007812 -52.15625 96.78125 -49.59375 C 99.5625 -47.039062 101.550781 -44.15625 102.75 -40.9375 C 103.957031 -37.726562 104.5625 -34.082031 104.5625 -30 Z M 104.5625 -30 "/></g></g></g><g fill="#ffffff" fill-opacity="1"><g transform="translate(661.701709, 803.999911)"><g><path d="M 106.09375 -1.53125 C 101.789062 -0.4375 97.335938 0.34375 92.734375 0.8125 C 88.140625 1.289062 83.46875 1.53125 78.71875 1.53125 C 64.925781 1.53125 54.632812 -1.585938 47.84375 -7.828125 C 41.0625 -14.066406 37.671875 -23.644531 37.671875 -36.5625 L 37.671875 -93.9375 L 6.890625 -93.9375 L 6.890625 -109.921875 L 37.671875 -109.921875 L 37.671875 -140.140625 L 56.71875 -145.078125 L 56.71875 -109.921875 L 106.09375 -109.921875 L 106.09375 -93.9375 L 56.71875 -93.9375 L 56.71875 -38.109375 C 56.71875 -30.222656 58.816406 -24.328125 63.015625 -20.421875 C 67.210938 -16.515625 73.394531 -14.5625 81.5625 -14.5625 C 85.070312 -14.5625 88.90625 -14.832031 93.0625 -15.375 C 97.226562 -15.925781 101.570312 -16.785156 106.09375 -17.953125 Z M 106.09375 -1.53125 "/></g></g></g><g fill="#ffffff" fill-opacity="1"><g transform="translate(779.381272, 803.999911)"><g><path d="M 22 -109.921875 L 39.421875 -109.921875 L 39.96875 -89.671875 C 46.457031 -97.484375 52.859375 -103.140625 59.171875 -106.640625 C 65.492188 -110.140625 71.863281 -111.890625 78.28125 -111.890625 C 89.664062 -111.890625 98.296875 -108.203125 104.171875 -100.828125 C 110.054688 -93.460938 112.78125 -82.519531 112.34375 -68 L 93.0625 -68 C 93.28125 -77.632812 91.875 -84.617188 88.84375 -88.953125 C 85.820312 -93.296875 81.390625 -95.46875 75.546875 -95.46875 C 72.992188 -95.46875 70.421875 -95.007812 67.828125 -94.09375 C 65.234375 -93.1875 62.566406 -91.726562 59.828125 -89.71875 C 57.097656 -87.71875 54.195312 -85.144531 51.125 -82 C 48.0625 -78.863281 44.78125 -75.070312 41.28125 -70.625 L 41.28125 0 L 22 0 Z M 22 -109.921875 "/></g></g></g><g fill="#ffffff" fill-opacity="1"><g transform="translate(897.060834, 803.999911)"><g><path d="M 105.875 0 L 88.796875 0 L 88.140625 -17.734375 C 84.859375 -13.941406 81.738281 -10.785156 78.78125 -8.265625 C 75.820312 -5.742188 72.878906 -3.71875 69.953125 -2.1875 C 67.035156 -0.65625 64.097656 0.414062 61.140625 1.03125 C 58.191406 1.65625 55.070312 1.96875 51.78125 1.96875 C 40.46875 1.96875 31.925781 -1.347656 26.15625 -7.984375 C 20.394531 -14.628906 17.515625 -24.671875 17.515625 -38.109375 L 17.515625 -109.921875 L 36.5625 -109.921875 L 36.5625 -39.640625 C 36.5625 -22.773438 42.914062 -14.34375 55.625 -14.34375 C 57.957031 -14.34375 60.234375 -14.6875 62.453125 -15.375 C 64.679688 -16.070312 67.019531 -17.273438 69.46875 -18.984375 C 71.914062 -20.703125 74.539062 -23.019531 77.34375 -25.9375 C 80.15625 -28.863281 83.316406 -32.550781 86.828125 -37 L 86.828125 -109.921875 L 105.875 -109.921875 Z M 105.875 0 "/></g></g></g><g fill="#ffffff" fill-opacity="1"><g transform="translate(1014.740397, 803.999911)"><g><path d="M 102.921875 -4.046875 C 97.953125 -2.148438 92.859375 -0.75 87.640625 0.15625 C 82.421875 1.070312 77.039062 1.53125 71.5 1.53125 C 54.125 1.53125 40.742188 -3.175781 31.359375 -12.59375 C 21.984375 -22.007812 17.296875 -35.769531 17.296875 -53.875 C 17.296875 -62.550781 18.644531 -70.429688 21.34375 -77.515625 C 24.050781 -84.597656 27.847656 -90.65625 32.734375 -95.6875 C 37.628906 -100.726562 43.46875 -104.613281 50.25 -107.34375 C 57.039062 -110.082031 64.523438 -111.453125 72.703125 -111.453125 C 78.390625 -111.453125 83.710938 -111.050781 88.671875 -110.25 C 93.640625 -109.445312 98.390625 -108.132812 102.921875 -106.3125 L 102.921875 -88.140625 C 98.171875 -90.617188 93.332031 -92.421875 88.40625 -93.546875 C 83.476562 -94.679688 78.390625 -95.25 73.140625 -95.25 C 68.242188 -95.25 63.625 -94.316406 59.28125 -92.453125 C 54.945312 -90.597656 51.132812 -87.914062 47.84375 -84.40625 C 44.5625 -80.90625 41.96875 -76.632812 40.0625 -71.59375 C 38.164062 -66.5625 37.21875 -60.875 37.21875 -54.53125 C 37.21875 -41.238281 40.445312 -31.289062 46.90625 -24.6875 C 53.375 -18.082031 62.335938 -14.78125 73.796875 -14.78125 C 78.972656 -14.78125 83.988281 -15.363281 88.84375 -16.53125 C 93.695312 -17.695312 98.390625 -19.445312 102.921875 -21.78125 Z M 102.921875 -4.046875 "/></g></g></g><g fill="#ffffff" fill-opacity="1"><g transform="translate(1132.419983, 803.999911)"><g><path d="M 106.09375 -1.53125 C 101.789062 -0.4375 97.335938 0.34375 92.734375 0.8125 C 88.140625 1.289062 83.46875 1.53125 78.71875 1.53125 C 64.925781 1.53125 54.632812 -1.585938 47.84375 -7.828125 C 41.0625 -14.066406 37.671875 -23.644531 37.671875 -36.5625 L 37.671875 -93.9375 L 6.890625 -93.9375 L 6.890625 -109.921875 L 37.671875 -109.921875 L 37.671875 -140.140625 L 56.71875 -145.078125 L 56.71875 -109.921875 L 106.09375 -109.921875 L 106.09375 -93.9375 L 56.71875 -93.9375 L 56.71875 -38.109375 C 56.71875 -30.222656 58.816406 -24.328125 63.015625 -20.421875 C 67.210938 -16.515625 73.394531 -14.5625 81.5625 -14.5625 C 85.070312 -14.5625 88.90625 -14.832031 93.0625 -15.375 C 97.226562 -15.925781 101.570312 -16.785156 106.09375 -17.953125 Z M 106.09375 -1.53125 "/></g></g></g><g fill="#38b6ff" fill-opacity="1"><g transform="translate(244.293807, 803.999911)"><g><path d="M 90.328125 43.46875 C 75.222656 43.46875 63.945312 39.832031 56.5 32.5625 C 49.050781 25.300781 45.328125 13.789062 45.328125 -1.96875 L 45.328125 -29.78125 C 45.328125 -37.300781 43.644531 -42.957031 40.28125 -46.75 C 36.925781 -50.550781 31.347656 -52.453125 23.546875 -52.453125 L 16.640625 -52.453125 L 16.640625 -73.140625 L 23.546875 -73.140625 C 27.484375 -73.140625 30.835938 -73.554688 33.609375 -74.390625 C 36.390625 -75.234375 38.65625 -76.53125 40.40625 -78.28125 C 42.15625 -80.03125 43.410156 -82.273438 44.171875 -85.015625 C 44.941406 -87.753906 45.328125 -91.019531 45.328125 -94.8125 L 45.328125 -114.09375 C 45.328125 -121.601562 46.179688 -128.207031 47.890625 -133.90625 C 49.609375 -139.601562 52.289062 -144.347656 55.9375 -148.140625 C 59.59375 -151.929688 64.25 -154.796875 69.90625 -156.734375 C 75.5625 -158.671875 82.367188 -159.640625 90.328125 -159.640625 L 99.53125 -159.640625 L 99.53125 -139.046875 L 92.625 -139.046875 C 89.125 -139.046875 85.96875 -138.625 83.15625 -137.78125 C 80.34375 -136.945312 77.914062 -135.582031 75.875 -133.6875 C 73.832031 -131.789062 72.265625 -129.289062 71.171875 -126.1875 C 70.078125 -123.082031 69.53125 -119.234375 69.53125 -114.640625 L 69.53125 -95.46875 C 69.53125 -90 69.070312 -85.328125 68.15625 -81.453125 C 67.238281 -77.585938 65.832031 -74.359375 63.9375 -71.765625 C 62.039062 -69.179688 59.632812 -67.175781 56.71875 -65.75 C 53.800781 -64.320312 50.367188 -63.316406 46.421875 -62.734375 C 54.234375 -61.859375 60.035156 -58.8125 63.828125 -53.59375 C 67.628906 -48.375 69.53125 -40.363281 69.53125 -29.5625 L 69.53125 -1.75 C 69.53125 2.988281 70.078125 6.925781 71.171875 10.0625 C 72.265625 13.207031 73.832031 15.726562 75.875 17.625 C 77.914062 19.519531 80.34375 20.867188 83.15625 21.671875 C 85.96875 22.484375 89.125 22.890625 92.625 22.890625 L 99.53125 22.890625 L 99.53125 43.46875 Z M 90.328125 43.46875 "/></g></g></g><g fill="#38b6ff" fill-opacity="1"><g transform="translate(361.973369, 803.999911)"><g><path d="M 32.953125 -159.640625 C 48.140625 -159.640625 59.453125 -156.003906 66.890625 -148.734375 C 74.335938 -141.472656 78.0625 -129.925781 78.0625 -114.09375 L 78.0625 -95.6875 C 78.0625 -88.175781 79.722656 -82.539062 83.046875 -78.78125 C 86.367188 -75.019531 91.9375 -73.140625 99.75 -73.140625 L 106.75 -73.140625 L 106.75 -52.453125 L 99.75 -52.453125 C 95.800781 -52.453125 92.441406 -52.03125 89.671875 -51.1875 C 86.898438 -50.34375 84.65625 -49.046875 82.9375 -47.296875 C 81.21875 -45.546875 79.972656 -43.300781 79.203125 -40.5625 C 78.441406 -37.820312 78.0625 -34.554688 78.0625 -30.765625 L 78.0625 -1.96875 C 78.0625 5.550781 77.203125 12.140625 75.484375 17.796875 C 73.773438 23.453125 71.09375 28.175781 67.4375 31.96875 C 63.789062 35.769531 59.117188 38.632812 53.421875 40.5625 C 47.734375 42.5 40.910156 43.46875 32.953125 43.46875 L 23.765625 43.46875 L 23.765625 22.890625 L 30.765625 22.890625 C 34.265625 22.890625 37.421875 22.484375 40.234375 21.671875 C 43.046875 20.867188 45.472656 19.5 47.515625 17.5625 C 49.554688 15.632812 51.125 13.117188 52.21875 10.015625 C 53.320312 6.910156 53.875 3.0625 53.875 -1.53125 L 53.875 -30 C 53.875 -35.476562 54.328125 -40.164062 55.234375 -44.0625 C 56.148438 -47.96875 57.535156 -51.21875 59.390625 -53.8125 C 61.253906 -56.40625 63.644531 -58.394531 66.5625 -59.78125 C 69.488281 -61.164062 72.921875 -62.148438 76.859375 -62.734375 C 69.046875 -63.679688 63.257812 -66.765625 59.5 -71.984375 C 55.75 -77.203125 53.875 -85.210938 53.875 -96.015625 L 53.875 -114.3125 C 53.875 -119.050781 53.320312 -123.007812 52.21875 -126.1875 C 51.125 -129.363281 49.554688 -131.898438 47.515625 -133.796875 C 45.472656 -135.691406 43.046875 -137.039062 40.234375 -137.84375 C 37.421875 -138.644531 34.265625 -139.046875 30.765625 -139.046875 L 23.765625 -139.046875 L 23.765625 -159.640625 Z M 32.953125 -159.640625 "/></g></g></g></svg>